<?xml version="1.0" standalone="no"?>
<!DOCTYPE svg PUBLIC "-//W3C//DTD SVG 20010904//EN"
 "http://www.w3.org/TR/2001/REC-SVG-20010904/DTD/svg10.dtd">
<svg version="1.0" xmlns="http://www.w3.org/2000/svg"
 width="877.000000pt" height="436.000000pt" viewBox="0 0 877.000000 436.000000"
 preserveAspectRatio="xMidYMid meet">

<g transform="translate(0.000000,436.000000) scale(0.100000,-0.100000)"
fill="#000000" stroke="none">
<path d="M265 4266 c-40 -17 -84 -63 -101 -103 -11 -26 -14 -127 -14 -495 0
-444 1 -463 20 -504 12 -24 39 -54 62 -70 39 -27 48 -29 165 -32 l123 -4 0
-63 0 -63 -118 -4 c-133 -3 -165 -17 -213 -86 l-24 -36 -3 -474 c-2 -462 -2
-476 18 -517 12 -25 38 -55 62 -71 l41 -29 1613 -3 1612 -2 41 -66 c23 -36 41
-67 41 -69 0 -3 -746 -6 -1658 -7 l-1658 -3 -36 -24 c-19 -13 -46 -40 -59 -59
l-24 -36 -3 -474 c-2 -462 -2 -476 18 -517 12 -25 38 -55 62 -71 l41 -29 1786
0 1786 0 36 24 c20 14 47 41 60 60 23 34 24 41 27 267 l3 232 32 -8 c18 -4 81
-37 140 -74 103 -65 137 -75 137 -42 0 8 -43 42 -97 75 -58 37 -91 62 -82 66
28 10 2399 615 2411 615 8 0 36 -23 63 -51 247 -254 656 -383 1025 -324 419
68 760 340 894 713 102 286 58 618 -117 876 -55 81 -166 196 -254 262 -343
258 -839 305 -1236 115 -187 -89 -378 -262 -477 -430 l-55 -93 -21 100 c-12
56 -24 108 -27 117 -8 18 -36 20 -43 2 -4 -12 25 -163 42 -221 4 -13 -337 154
-1165 570 l-1171 589 0 167 c0 93 -5 179 -11 195 -15 40 -57 82 -104 104 -38
18 -108 19 -1800 18 -1437 0 -1766 -2 -1790 -13z m3575 -54 c19 -9 45 -32 58
-51 l23 -35 -3 -467 -3 -467 -25 -27 c-41 -44 -73 -55 -155 -55 l-75 0 0 120
0 120 -1570 0 -1570 0 0 -120 0 -120 -105 0 c-114 0 -141 8 -185 55 l-25 27
-3 466 c-2 452 -2 468 18 500 11 18 34 41 52 52 33 20 54 20 1783 20 1646 0
1752 -1 1785 -18z m2296 -1627 c-93 -8 -111 -13 -114 -28 -5 -27 15 -29 159
-18 73 5 135 8 137 6 2 -2 -3 -29 -12 -59 -9 -31 -22 -103 -28 -161 -25 -221
35 -458 164 -648 22 -32 38 -60 36 -61 -1 -1 -379 -98 -838 -216 -459 -117
-1007 -257 -1218 -311 -380 -97 -383 -97 -366 -71 10 15 47 71 82 124 62 93
72 128 38 128 -12 0 -183 -249 -199 -290 -3 -8 -6 87 -6 212 -1 134 -5 238
-12 255 -28 74 -109 122 -206 123 -35 0 -63 2 -63 4 0 3 18 34 40 69 38 61 43
65 86 71 44 6 94 33 122 66 42 49 43 62 42 541 0 294 -4 468 -11 486 -30 80
-108 122 -226 123 l-83 0 0 64 0 64 93 4 c104 5 145 23 188 87 24 34 24 38 27
313 l3 278 1138 -572 1139 -573 -112 -10z m1452 630 c460 -75 805 -388 893
-810 36 -175 15 -372 -59 -543 -103 -238 -318 -443 -576 -548 -144 -58 -250
-78 -431 -78 -213 -1 -346 29 -535 122 -218 107 -420 329 -500 549 -77 215
-78 431 -1 643 167 458 695 748 1209 665z m-7068 -480 l0 -145 1465 0 1465 0
0 -250 0 -250 -75 0 c-57 0 -77 -4 -81 -15 -4 -8 33 -76 85 -160 50 -79 91
-147 91 -150 0 -3 -709 -5 -1575 -5 -1712 0 -1600 -4 -1655 55 l-25 27 -3 466
c-2 452 -2 468 18 500 36 58 72 72 188 72 l102 0 0 -145z m3330 127 c19 -9 45
-32 57 -51 23 -34 23 -37 23 -377 l0 -344 -50 0 -50 0 -2 258 -3 257 -82 3
-83 3 0 134 0 135 78 0 c53 0 88 -5 112 -18z m78 -967 c-3 -40 -11 -62 -29
-81 -26 -28 -78 -59 -86 -51 -5 5 106 187 114 187 3 0 3 -25 1 -55z m-88 -393
c19 -9 45 -32 57 -51 22 -33 23 -40 22 -280 -1 -168 -4 -232 -10 -202 -5 24
-16 63 -25 87 -13 35 -22 44 -40 44 -28 0 -29 -8 -9 -74 19 -63 19 -199 0
-262 -20 -66 -19 -74 9 -74 19 0 28 9 40 43 9 23 21 62 25 87 7 32 9 -11 8
-147 -2 -189 -2 -192 -27 -218 -55 -59 73 -55 -1830 -55 -1903 0 -1775 -4
-1830 55 l-25 27 -3 466 c-2 452 -2 468 18 500 11 18 34 41 52 52 33 20 54 20
1783 20 1646 0 1752 -1 1785 -18z"/>
<path d="M1619 3933 c-18 -45 -23 -78 -23 -148 0 -70 5 -103 23 -147 20 -53
25 -58 53 -58 24 0 29 3 25 18 -48 151 -48 255 -2 375 6 14 2 17 -23 17 -28 0
-33 -5 -53 -57z"/>
<path d="M2935 3968 c22 -72 35 -139 35 -183 0 -44 -13 -111 -35 -182 -7 -20
-4 -23 23 -23 28 0 33 5 53 58 18 44 23 77 23 147 0 70 -5 103 -23 148 -20 52
-25 57 -53 57 -27 0 -30 -3 -23 -22z"/>
<path d="M2024 3966 c-12 -30 4 -47 38 -44 28 2 33 7 33 28 0 21 -5 26 -33 28
-22 2 -34 -2 -38 -12z"/>
<path d="M820 3963 c-8 -3 -29 -19 -47 -36 -78 -74 -59 -224 33 -263 39 -16
121 -18 158 -4 25 9 26 13 26 90 l0 80 -64 0 c-42 0 -65 -4 -68 -12 -9 -24 4
-38 33 -38 26 0 29 -3 29 -34 0 -39 -22 -52 -61 -37 -84 32 -85 169 -1 203 21
8 38 6 73 -6 60 -21 59 -21 59 12 0 21 -7 32 -25 40 -26 12 -117 15 -145 5z"/>
<path d="M1050 3845 c0 -67 5 -125 12 -140 16 -36 57 -55 119 -55 45 0 55 4
85 34 l34 34 0 121 0 121 -35 0 -35 0 0 -115 c0 -113 0 -115 -26 -132 -24 -15
-29 -15 -53 -2 -25 14 -26 17 -29 132 l-3 117 -34 0 -35 0 0 -115z"/>
<path d="M1360 3810 l0 -150 35 0 35 0 0 150 0 150 -35 0 -35 0 0 -150z"/>
<path d="M1720 3953 c1 -4 23 -71 49 -148 l48 -140 44 0 44 0 47 135 c26 74
47 141 47 148 1 7 -12 12 -32 12 l-34 0 -34 -115 -34 -116 -35 113 -36 113
-37 3 c-20 2 -37 0 -37 -5z"/>
<path d="M2350 3920 c0 -23 -4 -30 -20 -30 -15 0 -20 -7 -20 -25 0 -18 5 -25
20 -25 18 0 20 -7 20 -78 0 -95 14 -115 77 -110 33 3 38 6 41 31 3 25 1 28
-17 22 -27 -8 -41 20 -41 84 0 50 1 51 30 51 25 0 30 4 30 25 0 21 -5 25 -30
25 -27 0 -30 3 -30 30 0 27 -3 30 -30 30 -27 0 -30 -3 -30 -30z"/>
<path d="M2159 3882 c-26 -21 -30 -71 -9 -97 8 -9 31 -26 53 -37 36 -18 38
-21 24 -35 -12 -13 -21 -14 -47 -4 -35 12 -50 8 -50 -14 0 -49 103 -63 145
-20 29 29 33 75 8 97 -10 9 -33 23 -51 32 -55 28 -28 51 36 31 19 -6 22 -4 22
18 0 16 -8 31 -19 37 -31 16 -87 12 -112 -8z"/>
<path d="M2533 3890 c-16 -6 -23 -18 -23 -35 0 -29 0 -29 51 -14 30 9 42 9 54
-1 28 -23 17 -37 -36 -42 -57 -6 -76 -20 -85 -63 -9 -46 26 -85 76 -85 21 0
41 4 45 9 3 5 21 7 40 4 l35 -6 0 102 c0 88 -3 104 -20 121 -22 22 -95 27
-137 10z m97 -150 c0 -22 -34 -44 -56 -36 -20 8 -17 44 4 49 38 10 52 7 52
-13z"/>
<path d="M2759 3882 c-26 -21 -30 -71 -9 -97 8 -9 31 -26 53 -37 36 -18 38
-21 24 -35 -12 -13 -21 -14 -47 -4 -35 12 -50 8 -50 -14 0 -49 103 -63 145
-20 29 29 33 75 8 97 -10 9 -33 23 -51 32 -55 28 -28 51 36 31 19 -6 22 -4 22
18 0 16 -8 31 -19 37 -31 16 -87 12 -112 -8z"/>
<path d="M2030 3775 l0 -115 30 0 30 0 0 115 0 115 -30 0 -30 0 0 -115z"/>
<path d="M4480 2139 c0 -28 -2 -30 -28 -24 -33 7 -49 -7 -58 -51 -4 -21 0 -37
14 -54 17 -22 23 -23 46 -12 15 7 26 8 26 2 0 -6 5 -10 10 -10 6 0 10 37 10
90 0 53 -4 90 -10 90 -5 0 -10 -14 -10 -31z m-5 -68 c9 -29 -5 -52 -29 -49
-37 5 -34 68 3 68 11 0 22 -8 26 -19z"/>
<path d="M5110 2139 c0 -28 -2 -30 -28 -24 -33 7 -49 -7 -58 -51 -4 -21 0 -37
14 -54 17 -22 23 -23 46 -12 15 7 26 8 26 2 0 -6 5 -10 10 -10 6 0 10 37 10
90 0 53 -4 90 -10 90 -5 0 -10 -14 -10 -31z m-5 -68 c9 -29 -5 -52 -29 -49
-37 5 -34 68 3 68 11 0 22 -8 26 -19z"/>
<path d="M4256 2080 c-16 -44 -26 -83 -23 -86 9 -9 27 6 27 22 0 10 12 14 39
14 30 0 40 -4 44 -20 3 -11 12 -20 21 -20 9 0 16 1 16 3 0 1 -13 38 -29 82
-40 111 -57 112 -95 5z m62 13 c10 -31 10 -33 -14 -33 -27 0 -29 6 -14 46 12
31 13 30 28 -13z"/>
<path d="M4820 2135 c0 -8 -4 -15 -10 -15 -5 0 -10 -7 -10 -15 0 -8 4 -15 9
-15 6 0 11 -21 13 -47 3 -41 6 -48 26 -51 15 -2 22 2 22 12 0 9 -7 16 -15 16
-10 0 -15 11 -15 35 0 24 5 35 15 35 8 0 15 7 15 15 0 8 -7 15 -15 15 -8 0
-15 7 -15 15 0 8 -4 15 -10 15 -5 0 -10 -7 -10 -15z"/>
<path d="M4553 2113 c-26 -10 -13 -30 16 -25 41 6 47 -15 6 -22 -22 -4 -36
-14 -40 -27 -9 -29 8 -42 55 -45 l40 -2 0 54 c0 42 -4 55 -19 64 -21 11 -38
12 -58 3z m55 -75 c-5 -15 -48 -24 -48 -10 0 14 12 22 33 22 10 0 17 -5 15
-12z"/>
<path d="M4670 2030 c0 -73 3 -90 15 -90 10 0 15 10 15 30 0 27 3 30 24 24 18
-4 28 0 40 17 39 57 -7 140 -53 97 -11 -10 -14 -10 -18 0 -13 35 -23 2 -23
-78z m75 25 c0 -23 -4 -30 -20 -30 -21 0 -31 25 -21 51 11 28 41 12 41 -21z"/>
<path d="M4913 2113 c-26 -10 -13 -30 16 -25 41 6 47 -15 6 -22 -22 -4 -36
-14 -40 -27 -9 -29 8 -42 55 -45 l40 -2 0 54 c0 42 -4 55 -19 64 -21 11 -38
12 -58 3z m55 -75 c-5 -15 -48 -24 -48 -10 0 14 12 22 33 22 10 0 17 -5 15
-12z"/>
<path d="M5189 2102 c-15 -13 -22 -30 -22 -52 0 -41 27 -63 68 -55 37 7 43 13
51 52 5 24 1 36 -15 52 -26 26 -52 27 -82 3z m66 -47 c0 -25 -4 -31 -26 -33
-29 -3 -44 18 -33 50 4 14 13 18 32 16 23 -2 27 -8 27 -33z"/>
<path d="M5320 2055 c0 -51 3 -65 15 -65 11 0 15 12 15 46 0 37 4 47 20 51 11
3 20 12 20 19 0 17 -12 18 -29 2 -11 -10 -14 -10 -18 0 -12 32 -23 6 -23 -53z"/>
<path d="M5437 2103 c-16 -19 -20 -34 -18 -71 1 -28 40 -47 75 -38 34 8 35 35
1 28 -13 -2 -33 -1 -42 4 -13 6 -6 9 27 13 52 7 63 28 31 60 -26 26 -53 27
-74 4z m61 -30 c2 -9 -7 -13 -27 -13 -30 0 -39 9 -24 24 11 10 46 3 51 -11z"/>
<path d="M5566 2105 c-19 -20 -7 -50 24 -60 31 -10 24 -28 -10 -23 -20 3 -30
0 -30 -9 0 -18 44 -27 69 -13 31 16 26 47 -11 67 l-33 18 28 3 c16 2 27 9 24
15 -6 19 -43 20 -61 2z"/>
<path d="M6765 2635 c-49 -48 -18 -145 45 -145 38 0 60 9 60 26 0 10 -8 12
-30 8 -39 -8 -60 10 -60 51 0 41 21 59 60 51 22 -4 30 -2 30 8 0 34 -72 35
-105 1z"/>
<path d="M7970 2635 c0 -8 -4 -15 -10 -15 -5 0 -10 -7 -10 -15 0 -8 5 -15 10
-15 6 0 10 -17 10 -39 0 -41 18 -65 46 -59 25 5 28 25 4 31 -29 7 -28 62 1 70
23 6 17 27 -7 27 -8 0 -14 7 -14 15 0 8 -7 15 -15 15 -8 0 -15 -7 -15 -15z"/>
<path d="M6900 2600 c-25 -25 -26 -72 -2 -93 42 -38 112 -6 112 51 0 57 -69
83 -110 42z m68 -43 c4 -34 -25 -49 -44 -22 -10 13 -10 23 -3 37 15 27 43 18
47 -15z"/>
<path d="M7040 2554 c0 -49 3 -64 14 -64 11 0 16 14 18 47 2 36 7 49 21 51 14
3 17 -4 17 -47 0 -44 3 -51 19 -51 17 0 20 8 23 48 2 34 7 47 18 47 11 0 16
-13 18 -47 2 -34 7 -48 18 -48 11 0 14 14 14 60 0 55 -2 60 -25 66 -14 3 -31
1 -39 -5 -9 -8 -16 -8 -20 -2 -4 6 -27 10 -51 9 l-45 -1 0 -63z"/>
<path d="M7253 2604 c-2 -6 -3 -44 -1 -85 2 -61 6 -74 21 -77 13 -3 17 3 17
26 0 25 3 29 23 25 14 -3 31 2 40 12 20 20 23 88 4 103 -17 14 -98 11 -104 -4z
m82 -33 c8 -26 -5 -53 -24 -49 -29 6 -27 68 3 68 8 0 17 -8 21 -19z"/>
<path d="M7410 2600 c-25 -25 -26 -72 -2 -93 42 -38 112 -6 112 51 0 57 -69
83 -110 42z m68 -43 c4 -34 -25 -49 -44 -22 -10 13 -10 23 -3 37 15 27 43 18
47 -15z"/>
<path d="M7543 2604 c-2 -6 -3 -33 -1 -60 2 -36 7 -50 20 -52 14 -3 17 6 20
45 2 35 7 48 18 48 11 0 16 -13 18 -47 3 -40 6 -48 23 -48 16 0 19 7 19 46 0
69 -12 84 -66 82 -26 -2 -48 -8 -51 -14z"/>
<path d="M7696 2598 c-22 -30 -20 -71 3 -92 25 -22 84 -18 89 6 3 14 -3 16
-32 11 -24 -4 -36 -2 -36 6 0 6 17 11 40 11 35 0 40 3 40 23 0 53 -75 77 -104
35z m64 -23 c0 -8 -9 -15 -20 -15 -20 0 -26 11 -13 23 12 13 33 7 33 -8z"/>
<path d="M7823 2604 c-2 -6 -3 -33 -1 -60 2 -36 7 -50 20 -52 14 -3 17 6 20
45 2 35 7 48 18 48 11 0 16 -13 18 -47 3 -40 6 -48 23 -48 16 0 19 7 19 46 0
69 -12 84 -66 82 -26 -2 -48 -8 -51 -14z"/>
<path d="M8066 2598 c-22 -30 -20 -71 3 -92 25 -22 84 -18 89 6 3 14 -3 16
-32 11 -24 -4 -36 -2 -36 6 0 6 17 11 40 11 35 0 40 3 40 23 0 53 -75 77 -104
35z m64 -23 c0 -8 -9 -15 -20 -15 -20 0 -26 11 -13 23 12 13 33 7 33 -8z"/>
<path d="M7480 2312 c0 -25 -3 -29 -23 -25 -31 6 -57 -21 -57 -58 0 -54 14
-68 70 -67 l51 1 -3 86 c-3 72 -6 86 -20 89 -14 3 -18 -3 -18 -26z m-5 -87 c0
-33 -28 -47 -39 -19 -10 25 3 56 22 52 11 -2 17 -13 17 -33z"/>
<path d="M7930 2312 c0 -25 -3 -29 -23 -25 -31 6 -57 -21 -57 -58 0 -54 14
-68 70 -67 l51 1 -3 86 c-3 72 -6 86 -20 89 -14 3 -18 -3 -18 -26z m-5 -87 c0
-33 -28 -47 -39 -19 -10 25 3 56 22 52 11 -2 17 -13 17 -33z"/>
<path d="M6817 2272 c-21 -23 -22 -76 -1 -96 25 -25 84 -18 84 10 0 10 -8 12
-29 8 -21 -4 -30 -2 -35 11 -11 29 3 56 27 54 36 -2 40 0 27 16 -17 20 -53 19
-73 -3z"/>
<path d="M6921 2277 c-15 -19 -4 -27 30 -20 18 3 29 1 29 -6 0 -6 -10 -11 -23
-11 -29 0 -47 -18 -47 -46 0 -26 17 -33 74 -32 l38 0 -4 55 c-3 32 -11 59 -19
64 -21 13 -65 11 -78 -4z m59 -67 c0 -13 -28 -25 -38 -16 -3 4 0 11 8 16 20
13 30 12 30 0z"/>
<path d="M7050 2224 c0 -50 3 -64 15 -64 10 0 15 10 15 34 0 44 9 66 26 66 8
0 14 6 14 14 0 9 -12 14 -35 14 l-35 0 0 -64z"/>
<path d="M7152 2277 c-6 -7 -10 -35 -9 -63 0 -27 -3 -56 -7 -62 -12 -20 13
-42 46 -42 42 0 68 17 68 45 0 27 -10 35 -54 46 -29 7 -30 7 -5 8 31 1 45 15
54 54 7 26 6 27 -38 27 -24 0 -49 -6 -55 -13z m54 -18 c10 -17 -13 -36 -27
-22 -12 12 -4 33 11 33 5 0 12 -5 16 -11z m9 -104 c0 -5 -10 -11 -22 -13 -16
-2 -23 2 -23 13 0 11 7 15 23 13 12 -2 22 -7 22 -13z"/>
<path d="M7281 2277 c-15 -19 -4 -27 30 -20 18 3 29 1 29 -6 0 -6 -10 -11 -23
-11 -29 0 -47 -18 -47 -46 0 -26 17 -33 74 -32 l38 0 -4 55 c-3 32 -11 59 -19
64 -21 13 -65 11 -78 -4z m59 -67 c0 -13 -28 -25 -38 -16 -3 4 0 11 8 16 20
13 30 12 30 0z"/>
<path d="M7560 2270 c-25 -25 -26 -72 -2 -93 42 -38 112 -6 112 51 0 57 -69
83 -110 42z m68 -43 c4 -34 -25 -49 -44 -22 -10 13 -10 23 -3 37 15 27 43 18
47 -15z"/>
<path d="M7700 2224 c0 -50 3 -64 15 -64 10 0 15 10 15 34 0 44 9 66 26 66 8
0 14 6 14 14 0 9 -12 14 -35 14 l-35 0 0 -64z"/>
<path d="M8006 2268 c-22 -30 -20 -71 3 -92 25 -22 84 -18 89 6 3 14 -3 16
-32 11 -24 -4 -36 -2 -36 6 0 6 17 11 40 11 35 0 40 3 40 23 0 53 -75 77 -104
35z m64 -23 c0 -8 -9 -15 -20 -15 -20 0 -26 11 -13 23 12 13 33 7 33 -8z"/>
<path d="M7180 2000 c0 -23 25 -27 33 -6 7 16 -1 26 -20 26 -7 0 -13 -9 -13
-20z"/>
<path d="M7320 1982 c0 -25 -3 -29 -23 -25 -31 6 -57 -21 -57 -58 0 -54 14
-68 70 -67 l51 1 -3 86 c-3 72 -6 86 -20 89 -14 3 -18 -3 -18 -26z m-5 -87 c0
-33 -28 -47 -39 -19 -10 25 3 56 22 52 11 -2 17 -13 17 -33z"/>
<path d="M7032 1948 c3 -7 13 -37 22 -65 15 -44 22 -53 41 -53 19 0 26 9 41
53 9 28 19 58 22 65 2 7 -4 12 -16 12 -15 0 -23 -11 -33 -47 l-13 -48 -15 48
c-11 35 -20 47 -34 47 -11 0 -17 -5 -15 -12z"/>
<path d="M7180 1895 c0 -51 3 -65 15 -65 12 0 15 14 15 65 0 51 -3 65 -15 65
-12 0 -15 -14 -15 -65z"/>
<path d="M7396 1938 c-22 -30 -20 -71 3 -92 25 -22 84 -18 89 6 3 14 -3 16
-32 11 -24 -4 -36 -2 -36 6 0 6 17 11 40 11 35 0 40 3 40 23 0 53 -75 77 -104
35z m64 -23 c0 -8 -9 -15 -20 -15 -20 0 -26 11 -13 23 12 13 33 7 33 -8z"/>
<path d="M7540 1940 c-25 -25 -26 -72 -2 -93 42 -38 112 -6 112 51 0 57 -69
83 -110 42z m68 -43 c4 -34 -25 -49 -44 -22 -10 13 -10 23 -3 37 15 27 43 18
47 -15z"/>
<path d="M7682 1948 c-22 -22 -14 -49 18 -61 39 -15 39 -31 -1 -23 -25 5 -30
3 -27 -12 4 -21 53 -29 74 -11 23 19 16 47 -16 64 -39 20 -38 29 1 21 25 -5
30 -3 27 12 -4 21 -57 29 -76 10z"/>
<path d="M1984 2416 c-12 -30 4 -47 38 -44 28 2 33 7 33 28 0 21 -5 26 -33 28
-22 2 -34 -2 -38 -12z"/>
<path d="M2364 2416 c-12 -30 4 -47 38 -44 28 2 33 7 33 28 0 21 -5 26 -33 28
-22 2 -34 -2 -38 -12z"/>
<path d="M1040 2259 l0 -151 89 4 c83 3 92 5 121 33 36 34 54 94 45 144 -17
92 -61 121 -179 121 l-76 0 0 -151z m163 70 c11 -14 17 -38 17 -69 0 -59 -22
-89 -72 -97 l-38 -6 0 103 0 103 38 -6 c20 -4 45 -16 55 -28z"/>
<path d="M1360 2322 c-52 -53 -49 -158 7 -202 18 -14 41 -20 75 -20 62 0 102
34 113 98 15 90 -32 152 -117 152 -41 0 -54 -5 -78 -28z m110 -42 c12 -12 20
-33 20 -55 0 -34 -27 -75 -50 -75 -23 0 -50 41 -50 75 0 34 27 75 50 75 6 0
19 -9 30 -20z"/>
<path d="M1672 2334 c-12 -8 -22 -10 -22 -5 0 6 -11 11 -25 11 l-25 0 0 -115
0 -115 30 0 30 0 0 78 c0 66 3 82 20 97 16 15 22 15 35 5 11 -9 15 -33 15 -96
l0 -84 35 0 35 0 0 78 c0 66 3 82 20 97 16 15 22 15 35 5 11 -9 15 -34 15 -97
l0 -84 33 3 32 3 0 91 c0 112 -16 144 -72 144 -20 0 -45 -7 -55 -17 -17 -15
-19 -15 -36 0 -23 21 -71 22 -100 1z"/>
<path d="M2182 2334 c-12 -8 -22 -10 -22 -5 0 6 -11 11 -25 11 l-25 0 0 -115
0 -115 30 0 30 0 0 80 c0 75 2 81 26 97 25 16 27 16 40 -2 9 -12 14 -46 14
-98 l0 -78 33 3 c31 3 32 4 35 58 5 78 -6 138 -29 161 -23 23 -76 25 -107 3z"/>
<path d="M2510 2322 c-52 -53 -49 -158 7 -202 18 -14 41 -20 75 -20 62 0 102
34 113 98 15 90 -32 152 -117 152 -41 0 -54 -5 -78 -28z m110 -42 c12 -12 20
-33 20 -55 0 -34 -27 -75 -50 -75 -23 0 -50 41 -50 75 0 34 27 75 50 75 6 0
19 -9 30 -20z"/>
<path d="M1990 2225 l0 -115 30 0 30 0 0 115 0 115 -30 0 -30 0 0 -115z"/>
<path d="M2370 2225 l0 -115 30 0 30 0 0 115 0 115 -30 0 -30 0 0 -115z"/>
<path d="M1430 1046 l0 -54 -28 10 c-41 16 -80 2 -103 -35 -29 -46 -23 -146
11 -182 27 -29 74 -33 108 -9 12 8 22 10 22 5 0 -6 11 -11 25 -11 l25 0 0 165
0 165 -30 0 c-30 0 -30 -1 -30 -54z m-18 -103 c39 -35 14 -133 -34 -133 -35 0
-51 87 -22 128 18 26 31 28 56 5z"/>
<path d="M2040 1046 l0 -54 -28 10 c-41 16 -80 2 -103 -35 -29 -46 -23 -146
11 -182 27 -29 74 -33 108 -9 12 8 22 10 22 5 0 -6 11 -11 25 -11 l25 0 0 165
0 165 -30 0 c-30 0 -30 -1 -30 -54z m-18 -103 c39 -35 14 -133 -34 -133 -35 0
-51 87 -22 128 18 26 31 28 56 5z"/>
<path d="M3157 1053 c-18 -40 -22 -66 -22 -158 0 -92 4 -118 22 -157 18 -39
27 -48 47 -48 14 0 26 1 26 3 0 1 -9 31 -20 65 -12 39 -20 92 -20 137 0 45 8
98 20 137 11 34 20 64 20 66 0 1 -12 2 -26 2 -20 0 -29 -9 -47 -47z"/>
<path d="M3603 1068 c-29 -14 -34 -75 -5 -63 60 26 100 8 88 -40 -3 -13 -31
-52 -62 -87 -36 -40 -54 -69 -52 -82 3 -20 9 -21 103 -21 93 0 100 1 100 20 0
17 -8 21 -63 25 l-64 5 27 25 c87 80 112 168 59 209 -29 23 -93 27 -131 9z"/>
<path d="M244 1057 c-2 -7 -3 -74 -2 -148 l3 -134 60 -3 c87 -5 133 11 151 53
16 40 7 75 -28 99 -12 9 -17 16 -11 16 16 0 36 55 28 79 -3 12 -19 28 -35 36
-37 19 -158 21 -166 2z m120 -43 c9 -3 16 -16 16 -29 0 -23 -17 -35 -51 -35
-15 0 -19 7 -19 35 0 36 15 44 54 29z m17 -124 c41 -23 16 -70 -38 -70 -32 0
-33 1 -33 40 0 36 2 40 26 40 14 0 34 -5 45 -10z"/>
<path d="M3285 1058 c-3 -8 -4 -75 -3 -149 l3 -134 30 0 c30 0 30 0 33 63 l3
62 54 0 55 0 0 -65 0 -65 30 0 30 0 0 150 0 150 -30 0 -30 0 0 -60 0 -60 -55
0 -54 0 -3 58 c-3 54 -4 57 -31 60 -16 2 -29 -2 -32 -10z"/>
<path d="M2410 1030 c0 -20 -5 -30 -15 -30 -9 0 -15 -9 -15 -25 0 -16 6 -25
15 -25 12 0 15 -14 15 -64 0 -81 12 -114 45 -122 38 -10 75 3 75 26 0 14 -7
20 -24 20 -29 0 -36 16 -36 86 0 53 0 54 30 54 25 0 30 4 30 25 0 21 -5 25
-30 25 -27 0 -30 3 -30 30 0 27 -3 30 -30 30 -27 0 -30 -3 -30 -30z"/>
<path d="M533 998 c-15 -7 -23 -20 -23 -36 0 -21 3 -23 23 -17 12 4 38 8 57 9
28 1 36 -3 38 -20 3 -18 -3 -22 -43 -26 -58 -7 -85 -31 -85 -75 0 -62 65 -94
118 -57 12 8 22 10 22 5 0 -6 11 -11 25 -11 25 0 25 0 25 98 0 53 -4 102 -8
108 -21 32 -103 44 -149 22z m97 -147 c0 -40 -61 -56 -68 -17 -5 22 13 36 46
36 15 0 22 -6 22 -19z"/>
<path d="M766 989 c-47 -37 -32 -94 34 -124 49 -22 52 -50 5 -49 -17 0 -38 4
-48 9 -16 7 -18 4 -15 -21 4 -37 41 -52 95 -38 79 19 83 100 8 140 -50 25 -62
59 -18 52 15 -3 36 -9 46 -13 14 -6 17 -2 17 19 0 47 -76 63 -124 25z"/>
<path d="M983 998 c-35 -17 -56 -72 -51 -135 6 -68 29 -93 91 -100 67 -8 97 2
97 32 0 23 -2 24 -48 18 -37 -4 -52 -2 -65 12 -35 34 -22 45 53 45 l70 0 0 43
c0 23 -6 49 -13 58 -28 37 -88 49 -134 27z m73 -46 c6 -4 13 -15 17 -24 5 -16
0 -18 -38 -18 -49 0 -50 2 -35 31 11 19 36 25 56 11z"/>
<path d="M1593 998 c-35 -17 -56 -72 -51 -135 6 -68 29 -93 91 -100 67 -8 97
2 97 32 0 23 -2 24 -48 18 -37 -4 -52 -2 -65 12 -35 34 -22 45 53 45 l70 0 0
43 c0 23 -6 49 -13 58 -28 37 -88 49 -134 27z m73 -46 c6 -4 13 -15 17 -24 5
-16 0 -18 -38 -18 -49 0 -50 2 -35 31 11 19 36 25 56 11z"/>
<path d="M2183 998 c-15 -7 -23 -20 -23 -36 0 -21 3 -23 23 -17 12 4 38 8 57
9 28 1 36 -3 38 -20 3 -18 -3 -22 -43 -26 -58 -7 -85 -31 -85 -75 0 -62 65
-94 118 -57 12 8 22 10 22 5 0 -6 11 -11 25 -11 25 0 25 0 25 98 0 53 -4 102
-8 108 -21 32 -103 44 -149 22z m97 -147 c0 -40 -61 -56 -68 -17 -5 22 13 36
46 36 15 0 22 -6 22 -19z"/>
<path d="M2599 982 c-27 -24 -33 -37 -37 -84 -7 -91 30 -138 109 -138 71 0
113 51 111 136 -1 76 -40 114 -117 114 -24 0 -45 -9 -66 -28z m105 -38 c10 -9
16 -33 16 -59 0 -67 -41 -96 -82 -58 -37 33 -13 133 32 133 10 0 26 -7 34 -16z"/>
<path d="M2846 989 c-47 -37 -32 -94 34 -124 49 -22 52 -50 5 -49 -17 0 -38 4
-48 9 -16 7 -18 4 -15 -21 4 -37 41 -52 95 -38 79 19 83 100 8 140 -50 25 -62
59 -18 52 15 -3 36 -9 46 -13 14 -6 17 -2 17 19 0 47 -76 63 -124 25z"/>
</g>
</svg>
