<svg id="Layer_1" data-name="Layer 1" xmlns="http://www.w3.org/2000/svg" xmlns:xlink="http://www.w3.org/1999/xlink" viewBox="0 0 830.21 558.47"><defs><style>.cls-1,.cls-14,.cls-16,.cls-3{fill:none;}.cls-2{clip-path:url(#clip-path);}.cls-14,.cls-16,.cls-3{stroke:#000;stroke-miterlimit:10;}.cls-16,.cls-3{stroke-linecap:square;}.cls-14,.cls-3{stroke-width:0.6px;}.cls-4{clip-path:url(#clip-path-2);}.cls-11,.cls-27,.cls-5,.cls-54{font-size:10.62px;}.cls-27,.cls-5,.cls-54{font-family:LucidaGrande, Lucida Grande;}.cls-27,.cls-6{letter-spacing:-0.02em;}.cls-7{letter-spacing:0.04em;}.cls-8{letter-spacing:0.01em;}.cls-9{letter-spacing:-0.04em;}.cls-10{letter-spacing:0.03em;}.cls-11{font-family:LucidaGrande-Bold, Lucida Grande;font-weight:700;letter-spacing:0.02em;}.cls-12{letter-spacing:0em;}.cls-13{letter-spacing:0em;}.cls-14{stroke-dasharray:7.2 3.6;}.cls-15{fill:#ffc;}.cls-16{stroke-width:1.2px;}.cls-17{letter-spacing:0.01em;}.cls-18{letter-spacing:-0.01em;}.cls-19{letter-spacing:-0.04em;}.cls-20{letter-spacing:0.03em;}.cls-21{letter-spacing:-0.03em;}.cls-22{letter-spacing:-0.02em;}.cls-23{letter-spacing:-0.03em;}.cls-24{letter-spacing:0.03em;}.cls-25{letter-spacing:-0.02em;}.cls-26{letter-spacing:-0.01em;}.cls-28{letter-spacing:0.03em;}.cls-29{letter-spacing:-0.04em;}.cls-30{letter-spacing:0.04em;}.cls-31{letter-spacing:0.04em;}.cls-32{letter-spacing:-0.03em;}.cls-33{letter-spacing:0.01em;}.cls-34{letter-spacing:0.03em;}.cls-35{letter-spacing:-0.04em;}.cls-36{fill:#fff;}.cls-37,.cls-54{letter-spacing:0.03em;}.cls-38{letter-spacing:0.02em;}.cls-39{letter-spacing:-0.01em;}.cls-40{letter-spacing:0.01em;}.cls-41{letter-spacing:0.03em;}.cls-42{letter-spacing:-0.04em;}.cls-43{letter-spacing:0.01em;}.cls-44{fill-rule:evenodd;}.cls-45{letter-spacing:-0.04em;}.cls-46{letter-spacing:-0.02em;}.cls-47{letter-spacing:0.03em;}.cls-48{letter-spacing:0.04em;}.cls-49{letter-spacing:-0.03em;}.cls-50{letter-spacing:-0.04em;}.cls-51{letter-spacing:-0.04em;}.cls-52{letter-spacing:-0.03em;}.cls-53{letter-spacing:-0.04em;}.cls-55{letter-spacing:-0.03em;}.cls-56{letter-spacing:-0.02em;}.cls-57{letter-spacing:0.01em;}.cls-58{letter-spacing:0.03em;}</style><clipPath id="clip-path" transform="translate(-3.74 -12.44)"><rect class="cls-1" x="4.04" y="12.74" width="942.27" height="742.19"/></clipPath><clipPath id="clip-path-2" transform="translate(-3.74 -12.44)"><rect class="cls-1" x="12.03" y="12.74" width="921.86" height="742.19"/></clipPath></defs><g class="cls-2"><rect class="cls-3" x="0.3" y="0.3" width="829.61" height="557.87"/><line class="cls-3" x1="70.6" y1="1.19" x2="70.6" y2="12.81"/><line class="cls-3" x1="70.6" y1="12.81" x2="63.2" y2="21.67"/><line class="cls-3" x1="63.2" y1="21.67" x2="0.3" y2="21.67"/></g><g class="cls-4"><text class="cls-5" transform="translate(28.56 15.35) scale(0.82 1)"><tspan class="cls-6">A</tspan><tspan class="cls-7" x="7.09" y="0">pp</tspan><tspan class="cls-8" x="21.24" y="0">V</tspan><tspan class="cls-9" x="28.32" y="0">i</tspan><tspan class="cls-7" x="30.97" y="0">d</tspan><tspan class="cls-10" x="38.05" y="0">e</tspan><tspan x="44.25" y="0">o</tspan></text></g><g class="cls-4"><text class="cls-11" transform="translate(15.52 15.35) scale(0.82 1)">s<tspan class="cls-12" x="6.19" y="0">d</tspan><tspan class="cls-13" x="13.26" y="0"> </tspan></text></g><g class="cls-4"><line class="cls-14" x1="609.9" y1="71.24" x2="609.9" y2="494.42"/><rect class="cls-15" x="570.08" y="44.68" width="79.64" height="26.56"/><rect class="cls-16" x="570.08" y="44.68" width="79.64" height="26.56"/></g><g class="cls-4"><text class="cls-5" transform="translate(597.23 58.85) scale(0.82 1)"><tspan class="cls-17">V</tspan><tspan class="cls-9" x="7.07" y="0">i</tspan><tspan class="cls-18" x="9.73" y="0">s</tspan><tspan class="cls-19" x="15.04" y="0">t</tspan><tspan class="cls-20" x="18.59" y="0">a</tspan><tspan x="24.78" y="0">s</tspan></text></g><g class="cls-4"><line class="cls-14" x1="409.36" y1="71.24" x2="409.36" y2="336.84"/><rect class="cls-15" x="369.54" y="44.68" width="79.64" height="26.56"/><rect class="cls-16" x="369.54" y="44.68" width="79.64" height="26.56"/></g><g class="cls-4"><text class="cls-5" transform="translate(399.85 58.85) scale(0.82 1)"><tspan class="cls-21">U</tspan><tspan class="cls-18" x="7.08" y="0">s</tspan><tspan class="cls-10" x="12.39" y="0">e</tspan><tspan x="18.59" y="0">r</tspan></text></g><g class="cls-4"><line class="cls-14" x1="502.03" y1="71.24" x2="502.03" y2="336.84"/><rect class="cls-15" x="462.21" y="44.68" width="79.64" height="26.56"/><rect class="cls-16" x="462.21" y="44.68" width="79.64" height="26.56"/></g><g class="cls-4"><text class="cls-5" transform="translate(477.49 58.85) scale(0.82 1)">D<tspan class="cls-22" x="7.96" y="0">A</tspan><tspan class="cls-23" x="15.05" y="0">O</tspan><tspan class="cls-24" x="23.03" y="0">P</tspan><tspan class="cls-9" x="29.22" y="0">l</tspan><tspan class="cls-24" x="31.88" y="0">a</tspan><tspan class="cls-25" x="38.06" y="0">y</tspan><tspan class="cls-9" x="43.38" y="0">li</tspan><tspan class="cls-26" x="48.69" y="0">s</tspan><tspan x="54.01" y="0">t</tspan></text></g><g class="cls-4"><line class="cls-14" x1="240.31" y1="71.24" x2="240.31" y2="513.9"/><rect class="cls-15" x="200.5" y="44.68" width="79.64" height="26.56"/><rect class="cls-16" x="200.5" y="44.68" width="79.64" height="26.56"/></g><g class="cls-4"><text class="cls-27" transform="translate(219.68 58.85) scale(0.82 1)">A<tspan class="cls-7" x="7.09" y="0">pp</tspan><tspan class="cls-8" x="21.24" y="0">V</tspan><tspan class="cls-9" x="28.32" y="0">i</tspan><tspan class="cls-7" x="30.97" y="0">d</tspan><tspan class="cls-28" x="38.05" y="0">e</tspan><tspan class="cls-13" x="44.25" y="0">o</tspan></text></g><g class="cls-4"><line class="cls-14" x1="72.35" y1="71.24" x2="72.35" y2="531.61"/><rect class="cls-15" x="26.47" y="44.68" width="91.77" height="26.56"/><rect class="cls-16" x="26.47" y="44.68" width="91.77" height="26.56"/></g><g class="cls-4"><text class="cls-5" transform="translate(33.71 58.85) scale(0.82 1)"><tspan class="cls-24">P</tspan><tspan class="cls-29" x="6.19" y="0">l</tspan><tspan class="cls-20" x="8.86" y="0">a</tspan><tspan class="cls-25" x="15.05" y="0">y</tspan><tspan class="cls-29" x="20.37" y="0">li</tspan><tspan class="cls-26" x="25.71" y="0">s</tspan><tspan class="cls-19" x="31.03" y="0">t</tspan><tspan class="cls-30" x="34.57" y="0">E</tspan><tspan class="cls-31" x="40.77" y="0">d</tspan><tspan class="cls-29" x="47.84" y="0">i</tspan><tspan class="cls-19" x="50.5" y="0">t</tspan><tspan class="cls-32" x="54.05" y="0">o</tspan><tspan class="cls-33" x="60.26" y="0">r</tspan><tspan class="cls-24" x="64.68" y="0">P</tspan><tspan class="cls-34" x="70.87" y="0">a</tspan><tspan class="cls-35" x="77.07" y="0">n</tspan><tspan class="cls-28" x="83.27" y="0">e</tspan><tspan x="89.46" y="0">l</tspan></text></g><g class="cls-4"><rect class="cls-36" x="236.69" y="110.2" width="7.24" height="22.13"/><rect class="cls-3" x="236.69" y="110.2" width="7.24" height="22.13"/><rect class="cls-36" x="68.73" y="90.72" width="7.24" height="427.61"/><rect class="cls-3" x="68.73" y="90.72" width="7.24" height="427.61"/></g><g class="cls-4"><text class="cls-5" transform="translate(104.99 106.6) scale(0.82 1)"><tspan class="cls-37">1</tspan><tspan class="cls-38" x="7.08" y="0">: </tspan><tspan class="cls-39" x="14.16" y="0">c</tspan><tspan class="cls-40" x="19.48" y="0">r</tspan><tspan class="cls-10" x="23.9" y="0">e</tspan><tspan class="cls-34" x="30.09" y="0">a</tspan><tspan class="cls-19" x="36.29" y="0">t</tspan><tspan class="cls-28" x="39.84" y="0">e</tspan><tspan class="cls-41" x="46.03" y="0">P</tspan><tspan class="cls-9" x="52.22" y="0">l</tspan><tspan class="cls-34" x="54.88" y="0">a</tspan><tspan class="cls-25" x="61.08" y="0">y</tspan><tspan class="cls-42" x="66.39" y="0">li</tspan><tspan class="cls-18" x="71.71" y="0">s</tspan><tspan class="cls-19" x="77.02" y="0">t</tspan><tspan class="cls-43" x="80.57" y="0">(</tspan><tspan class="cls-7" x="84.1" y="0">p</tspan><tspan class="cls-9" x="91.18" y="0">l</tspan><tspan class="cls-20" x="93.84" y="0">a</tspan><tspan class="cls-25" x="100.04" y="0">y</tspan><tspan class="cls-9" x="105.35" y="0">li</tspan><tspan class="cls-18" x="110.67" y="0">s</tspan><tspan class="cls-19" x="115.98" y="0">t</tspan><tspan x="119.53" y="0">)</tspan></text></g><g class="cls-4"><line class="cls-3" x1="75.97" y1="110.2" x2="236.77" y2="110.2"/><polygon class="cls-44" points="236.69 110.2 228.73 104.89 228.73 116.39 236.69 110.2"/><polygon class="cls-3" points="236.69 110.2 228.73 104.89 228.73 116.39 236.69 110.2"/><rect class="cls-36" x="251.17" y="350.12" width="7.24" height="59.32"/><rect class="cls-3" x="251.17" y="350.12" width="7.24" height="59.32"/><rect class="cls-36" x="243.93" y="264.24" width="7.24" height="162.9"/><rect class="cls-3" x="243.93" y="264.24" width="7.24" height="162.9"/><rect class="cls-36" x="236.69" y="156.23" width="7.24" height="298.35"/><rect class="cls-3" x="236.69" y="156.23" width="7.24" height="298.35"/></g><g class="cls-4"><text class="cls-5" transform="translate(103.23 152.63) scale(0.82 1)"><tspan class="cls-37">2</tspan><tspan class="cls-38" x="7.08" y="0">: </tspan><tspan class="cls-45" x="14.16" y="0">u</tspan><tspan class="cls-7" x="20.37" y="0">pd</tspan><tspan class="cls-34" x="34.53" y="0">a</tspan><tspan class="cls-19" x="40.73" y="0">t</tspan><tspan class="cls-28" x="44.28" y="0">e</tspan><tspan class="cls-41" x="50.47" y="0">P</tspan><tspan class="cls-9" x="56.66" y="0">l</tspan><tspan class="cls-34" x="59.32" y="0">a</tspan><tspan class="cls-46" x="65.52" y="0">y</tspan><tspan class="cls-9" x="70.83" y="0">li</tspan><tspan class="cls-18" x="76.15" y="0">s</tspan><tspan class="cls-19" x="81.46" y="0">t</tspan><tspan class="cls-43" x="85" y="0">(</tspan><tspan class="cls-7" x="88.54" y="0">p</tspan><tspan class="cls-9" x="95.62" y="0">l</tspan><tspan class="cls-20" x="98.28" y="0">a</tspan><tspan class="cls-25" x="104.48" y="0">y</tspan><tspan class="cls-9" x="109.79" y="0">li</tspan><tspan class="cls-18" x="115.11" y="0">s</tspan><tspan class="cls-19" x="120.42" y="0">t</tspan><tspan x="123.96" y="0">)</tspan></text></g><g class="cls-4"><line class="cls-3" x1="75.97" y1="156.23" x2="236.77" y2="156.23"/><polygon class="cls-44" points="236.69 156.23 228.73 150.92 228.73 162.43 236.69 156.23"/><polygon class="cls-3" points="236.69 156.23 228.73 150.92 228.73 162.43 236.69 156.23"/><rect class="cls-36" x="405.74" y="169.51" width="7.24" height="22.13"/><rect class="cls-3" x="405.74" y="169.51" width="7.24" height="22.13"/></g><g class="cls-4"><text class="cls-5" transform="translate(252.82 165.91) scale(0.82 1)"><tspan class="cls-37">2</tspan><tspan class="cls-38" x="7.08" y="0">.</tspan><tspan class="cls-47" x="10.62" y="0">1</tspan><tspan class="cls-38" x="17.7" y="0">: </tspan><tspan class="cls-20" x="24.78" y="0">a</tspan><tspan class="cls-48" x="30.98" y="0">dd</tspan><tspan class="cls-49" x="45.14" y="0">O</tspan><tspan class="cls-33" x="53.11" y="0">r</tspan><tspan class="cls-47" x="57.53" y="0">R</tspan><tspan class="cls-28" x="64.61" y="0">e</tspan><tspan class="cls-7" x="70.8" y="0">p</tspan><tspan class="cls-9" x="77.88" y="0">l</tspan><tspan class="cls-20" x="80.54" y="0">a</tspan><tspan class="cls-39" x="86.73" y="0">c</tspan><tspan class="cls-28" x="92.05" y="0">e</tspan><tspan class="cls-24" x="98.24" y="0">P</tspan><tspan class="cls-9" x="104.43" y="0">l</tspan><tspan class="cls-20" x="107.09" y="0">a</tspan><tspan class="cls-25" x="113.29" y="0">y</tspan><tspan class="cls-9" x="118.6" y="0">li</tspan><tspan class="cls-18" x="123.92" y="0">s</tspan><tspan class="cls-50" x="129.23" y="0">t</tspan><tspan class="cls-43" x="132.77" y="0">(</tspan><tspan class="cls-7" x="136.31" y="0">p</tspan><tspan class="cls-9" x="143.39" y="0">l</tspan><tspan class="cls-34" x="146.05" y="0">a</tspan><tspan class="cls-46" x="152.25" y="0">y</tspan><tspan class="cls-9" x="157.56" y="0">li</tspan><tspan class="cls-18" x="162.88" y="0">s</tspan><tspan class="cls-19" x="168.19" y="0">t</tspan><tspan x="171.74" y="0">)</tspan></text></g><g class="cls-4"><line class="cls-3" x1="243.93" y1="169.51" x2="405.81" y2="169.51"/><polygon class="cls-44" points="406.1 169.51 397.42 164.2 397.42 175.71 406.1 169.51"/><polygon class="cls-3" points="406.1 169.51 397.42 164.2 397.42 175.71 406.1 169.51"/><rect class="cls-36" x="498.41" y="207.58" width="7.24" height="47.81"/><rect class="cls-3" x="498.41" y="207.58" width="7.24" height="47.81"/></g><g class="cls-4"><text class="cls-5" transform="translate(315.22 203.98) scale(0.82 1)"><tspan class="cls-37">2</tspan><tspan class="cls-38" x="7.08" y="0">.</tspan><tspan class="cls-47" x="10.62" y="0">2</tspan><tspan class="cls-38" x="17.7" y="0">: </tspan><tspan class="cls-51" x="24.78" y="0">u</tspan><tspan class="cls-7" x="30.99" y="0">pd</tspan><tspan class="cls-20" x="45.15" y="0">a</tspan><tspan class="cls-19" x="51.35" y="0">t</tspan><tspan class="cls-28" x="54.9" y="0">e</tspan><tspan class="cls-24" x="61.09" y="0">P</tspan><tspan class="cls-33" x="67.28" y="0">r</tspan><tspan class="cls-32" x="71.71" y="0">o</tspan><tspan class="cls-52" x="77.91" y="0">f</tspan><tspan class="cls-9" x="81.47" y="0">il</tspan><tspan class="cls-10" x="86.78" y="0">e</tspan><tspan class="cls-43" x="92.98" y="0">(</tspan><tspan class="cls-7" x="96.52" y="0">p</tspan><tspan class="cls-9" x="103.6" y="0">l</tspan><tspan class="cls-34" x="106.25" y="0">a</tspan><tspan class="cls-46" x="112.45" y="0">y</tspan><tspan class="cls-9" x="117.77" y="0">li</tspan><tspan class="cls-18" x="123.08" y="0">s</tspan><tspan class="cls-53" x="128.39" y="0">t</tspan><tspan x="131.94" y="0">)</tspan></text></g><g class="cls-4"><line class="cls-3" x1="243.93" y1="207.58" x2="498.48" y2="207.58"/><polygon class="cls-44" points="498.77 207.58 490.08 202.27 490.08 213.78 498.77 207.58"/><polygon class="cls-3" points="498.77 207.58 490.08 202.27 490.08 213.78 498.77 207.58"/></g><g class="cls-4"><text class="cls-5" transform="translate(240.66 242.94) scale(0.82 1)"><tspan class="cls-37">2</tspan><tspan class="cls-38" x="7.08" y="0">.</tspan><tspan class="cls-47" x="10.62" y="0">3</tspan><tspan class="cls-38" x="17.7" y="0">: </tspan><tspan class="cls-20" x="24.78" y="0">a</tspan><tspan class="cls-48" x="30.98" y="0">pp</tspan><tspan class="cls-9" x="45.14" y="0">l</tspan><tspan class="cls-46" x="47.8" y="0">y</tspan><tspan class="cls-45" x="53.11" y="0">F</tspan><tspan class="cls-9" x="58.43" y="0">il</tspan><tspan class="cls-19" x="63.74" y="0">t</tspan><tspan class="cls-28" x="67.29" y="0">e</tspan><tspan class="cls-33" x="73.48" y="0">r</tspan><tspan class="cls-43" x="77.9" y="0">(</tspan><tspan class="cls-52" x="81.44" y="0">f</tspan><tspan class="cls-9" x="85" y="0">il</tspan><tspan class="cls-19" x="90.31" y="0">t</tspan><tspan class="cls-28" x="93.86" y="0">e</tspan><tspan class="cls-33" x="100.06" y="0">r</tspan><tspan x="104.48" y="0">)</tspan></text></g><g class="cls-4"><line class="cls-3" x1="243.93" y1="246.54" x2="287.37" y2="246.54"/><line class="cls-3" x1="287.37" y1="246.54" x2="287.37" y2="264.24"/><line class="cls-3" x1="287.37" y1="264.24" x2="251.1" y2="264.24"/><polygon class="cls-44" points="251.17 264.24 259.14 270.44 259.14 258.93 251.17 264.24"/><polygon class="cls-3" points="251.17 264.24 259.14 270.44 259.14 258.93 251.17 264.24"/><rect class="cls-36" x="405.74" y="279.29" width="7.24" height="22.13"/><rect class="cls-3" x="405.74" y="279.29" width="7.24" height="22.13"/></g><g class="cls-4"><text class="cls-54" transform="translate(236.16 275.69) scale(0.82 1)">2<tspan class="cls-38" x="7.08" y="0">.</tspan><tspan class="cls-47" x="10.62" y="0">3</tspan><tspan class="cls-38" x="17.7" y="0">.</tspan><tspan x="21.24" y="0">1</tspan><tspan class="cls-38" x="28.32" y="0">: </tspan><tspan class="cls-45" x="35.4" y="0">u</tspan><tspan class="cls-7" x="41.62" y="0">pd</tspan><tspan class="cls-34" x="55.77" y="0">a</tspan><tspan class="cls-19" x="61.97" y="0">t</tspan><tspan class="cls-10" x="65.52" y="0">e</tspan><tspan class="cls-45" x="71.72" y="0">F</tspan><tspan class="cls-9" x="77.03" y="0">il</tspan><tspan class="cls-19" x="82.34" y="0">t</tspan><tspan class="cls-28" x="85.89" y="0">e</tspan><tspan class="cls-33" x="92.09" y="0">r</tspan><tspan class="cls-45" x="96.51" y="0">F</tspan><tspan class="cls-55" x="101.82" y="0">o</tspan><tspan class="cls-40" x="108.03" y="0">r</tspan><tspan class="cls-56" x="112.45" y="0">C</tspan><tspan class="cls-51" x="119.53" y="0">u</tspan><tspan class="cls-40" x="125.74" y="0">rr</tspan><tspan class="cls-28" x="134.59" y="0">e</tspan><tspan class="cls-51" x="140.78" y="0">n</tspan><tspan class="cls-19" x="146.99" y="0">t</tspan><tspan class="cls-24" x="150.54" y="0">P</tspan><tspan class="cls-42" x="156.73" y="0">l</tspan><tspan class="cls-34" x="159.39" y="0">a</tspan><tspan class="cls-25" x="165.58" y="0">y</tspan><tspan class="cls-9" x="170.9" y="0">li</tspan><tspan class="cls-18" x="176.22" y="0">s</tspan><tspan class="cls-19" x="181.52" y="0">t</tspan><tspan class="cls-18" x="185.07" y="0">s</tspan><tspan class="cls-43" x="190.38" y="0">(</tspan><tspan class="cls-52" x="193.92" y="0">f</tspan><tspan class="cls-9" x="197.48" y="0">il</tspan><tspan class="cls-19" x="202.79" y="0">t</tspan><tspan class="cls-28" x="206.34" y="0">e</tspan><tspan class="cls-33" x="212.53" y="0">r</tspan><tspan class="cls-13" x="216.96" y="0">)</tspan></text></g><g class="cls-4"><line class="cls-3" x1="251.17" y1="279.29" x2="405.81" y2="279.29"/><polygon class="cls-44" points="406.1 279.29 397.42 273.98 397.42 285.49 406.1 279.29"/><polygon class="cls-3" points="406.1 279.29 397.42 273.98 397.42 285.49 406.1 279.29"/></g><g class="cls-4"><text class="cls-5" transform="translate(215.53 328.81) scale(0.82 1)"><tspan class="cls-37">2</tspan><tspan class="cls-38" x="7.08" y="0">.</tspan><tspan class="cls-47" x="10.62" y="0">3</tspan><tspan class="cls-38" x="17.7" y="0">.</tspan><tspan class="cls-37" x="21.24" y="0">2</tspan><tspan class="cls-38" x="28.32" y="0">: </tspan><tspan class="cls-45" x="35.4" y="0">n</tspan><tspan class="cls-55" x="41.62" y="0">o</tspan><tspan class="cls-19" x="47.82" y="0">t</tspan><tspan class="cls-9" x="51.37" y="0">i</tspan><tspan class="cls-52" x="54.03" y="0">f</tspan><tspan class="cls-9" x="57.58" y="0">i</tspan><tspan class="cls-28" x="60.24" y="0">e</tspan><tspan class="cls-51" x="66.43" y="0">F</tspan><tspan class="cls-9" x="71.75" y="0">il</tspan><tspan class="cls-19" x="77.06" y="0">t</tspan><tspan class="cls-28" x="80.61" y="0">e</tspan><tspan class="cls-33" x="86.8" y="0">r</tspan><tspan class="cls-28" x="91.23" y="0">e</tspan><tspan class="cls-7" x="97.42" y="0">d</tspan><tspan class="cls-17" x="104.5" y="0">V</tspan><tspan class="cls-9" x="111.57" y="0">i</tspan><tspan class="cls-48" x="114.23" y="0">d</tspan><tspan class="cls-10" x="121.31" y="0">e</tspan><tspan class="cls-32" x="127.51" y="0">o</tspan><tspan class="cls-56" x="133.71" y="0">C</tspan><tspan class="cls-45" x="140.8" y="0">h</tspan><tspan class="cls-20" x="147.01" y="0">a</tspan><tspan class="cls-45" x="153.21" y="0">n</tspan><tspan class="cls-9" x="159.42" y="0">g</tspan><tspan class="cls-10" x="165.63" y="0">e</tspan><tspan class="cls-48" x="171.82" y="0">d</tspan><tspan class="cls-57" x="178.9" y="0">(</tspan><tspan x="182.44" y="0">)</tspan></text></g><g class="cls-4"><line class="cls-3" x1="251.17" y1="332.41" x2="294.61" y2="332.41"/><line class="cls-3" x1="294.61" y1="332.41" x2="294.61" y2="350.12"/><line class="cls-3" x1="294.61" y1="350.12" x2="258.34" y2="350.12"/><polygon class="cls-44" points="258.41 350.12 266.38 356.31 266.38 344.81 258.41 350.12"/><polygon class="cls-3" points="258.41 350.12 266.38 356.31 266.38 344.81 258.41 350.12"/><rect class="cls-36" x="606.28" y="369.59" width="7.24" height="22.13"/><rect class="cls-3" x="606.28" y="369.59" width="7.24" height="22.13"/></g><g class="cls-4"><text class="cls-5" transform="translate(403.79 366) scale(0.82 1)"><tspan class="cls-37">2</tspan><tspan class="cls-38" x="7.08" y="0">.</tspan><tspan class="cls-37" x="10.62" y="0">3</tspan><tspan class="cls-38" x="17.7" y="0">.</tspan><tspan class="cls-58" x="21.24" y="0">2</tspan><tspan class="cls-38" x="28.32" y="0">.</tspan><tspan class="cls-58" x="31.86" y="0">1</tspan><tspan class="cls-38" x="38.94" y="0">: </tspan><tspan class="cls-40" x="46.03" y="0">r</tspan><tspan class="cls-51" x="50.45" y="0">un</tspan><tspan class="cls-43" x="62.87" y="0">(</tspan><tspan x="66.41" y="0">)</tspan></text></g><g class="cls-4"><line class="cls-3" x1="258.41" y1="369.59" x2="606.36" y2="369.59"/><polygon class="cls-44" points="606.64 369.6 597.96 364.28 597.96 375.79 606.64 369.6"/><polygon class="cls-3" points="606.64 369.6 597.96 364.28 597.96 375.79 606.64 369.6"/></g></svg>